<?xml version="1.0" encoding="UTF-8"?>
<svg xmlns="http://www.w3.org/2000/svg" width="5cm" height="3cm" version="1.4" fill="yellow">
  <title>Still My beautiful creation!</title>
  <desc>Four seperate rectangles... Not anymore</desc>
  <rect x="0.000000cm" y="1.000000cm" width="0.955598cm" height="0.955598cm" fill="purple"/>
  <rect x="0.500000cm" y="1.000000cm" width="1.911195cm" height="1.433396cm" fill="blue"/>
  <rect x="3.000000cm" y="0.500000cm" width="1.433396cm" height="2.388994cm" fill="none" stroke="red"/>
  <rect x="3.600000cm" y="3.000000cm" width="0.955598cm" height="0.477798cm"/>
  <rect x="0.010000cm" y="0.010000cm" width="4.758875cm" height="3.803278cm" fill="none" stroke="red" stroke-width=".05cm"/>
  <rect x="3.000000cm" y="2.200000cm" width="0.191120cm" height="2.866792cm" fill="purple"/>
  <rect x="140.399994" y="140.699997" width="19.111950" height="19.685308" fill="aquamarine"/>
  <rect x="-12.000000" y="42.000000" width="2.866792" height="1.911195" fill="red"/>
  <rect x="123.000000" y="500.000000" width="127.412987" height="8.918909" fill="magenta"/>
  <rect x="3.000000" y="42.000000" width="1.911195" height="1.274130"/>
  <rect x="123.000000" y="232.000000" width="78.358994" height="268.841400" fill="red"/>
  <rect x="0.000000" y="45.000000" width="4.000000" height="2.000000"/>
  <circle cx="2.000000" cy="1.000000" r="9.261945" fill="blue"/>
  <circle cx="140.000000" cy="100.000000" r="13.231351" stroke="purple" fill="green"/>
  <circle cx="2.000000cm" cy="3.000000cm" r="0.132314cm" fill="pink"/>
  <circle cx="123.000000" cy="13.000000" r="1.764180" fill="black"/>
  <circle cx="123.000000" cy="421.000000" r="11.761200"/>
  <circle cx="1.000000cm" cy="0.000000cm" r="1.000000cm" fill="brown"/>
</svg>
